<svg id="Layer_1" data-name="Layer 1"
    xmlns="http://www.w3.org/2000/svg" viewBox="-50 -50 350 350">
    <defs>
        <style>.cls-1{fill:#fff072;}.cls-1,.cls-2,.cls-3,.cls-5,.cls-6{stroke:#000;stroke-miterlimit:10;stroke-width:7px;}.cls-1,.cls-2,.cls-3,.cls-4,.cls-5,.cls-6{fill-rule:evenodd;}.cls-2{fill:#007f0e;}.cls-3{fill:#881846;}.cls-4{fill:#f7c0d9;}.cls-5{fill:#fff;}</style>
    </defs>
    <g id="group">
        <path id="L-Horn" class="cls-1" d="M97.44,98.27A60.08,60.08,0,0,1,79.35,55.35a51.3,51.3,0,0,0-12,21.49c-4.3,16,0,33,9.57,46.43m9.37-14.68" transform="translate(-59.69 -38.91)"/>
        <path id="Outline" class="cls-2" d="M255.59,123.81a101.78,101.78,0,0,1,13.74,51.11c.08,56.69-46,102.71-102.93,102.78S63.26,231.88,63.19,175.19s46-102.7,102.94-102.78a102.86,102.86,0,0,1,63.28,21.52" transform="translate(-59.69 -38.91)"/>
        <path id="Mouth" class="cls-3" d="M87.26,190.19h8.59L224.69,190c3.75,10.4,4.56,21,1.76,30.92-6.26,22.1-31.5,41-64.37,41.32-21-.59-39.89-13.37-52.44-30.86a74.79,74.79,0,0,1-13.79-41.21Z" transform="translate(-59.69 -38.91)"/>
        <g id="Tongue">
            <path class="cls-4" d="M177.92,224.5c12.05,0,24.82,4.94,31.38,17.14.78,1.46-16.19,12.48-31.76,15.5-18.92,3.67-27.92.09-34.36-2.53C147,235.83,161.3,224.52,177.92,224.5Z" transform="translate(-59.69 -38.91)"/>
        </g>
        <path id="L-Tusk" class="cls-1" d="M125.09,216l.89,30.93-13.76-12.87Z" transform="translate(-59.69 -38.91)"/>
        <path id="R-Tusk" class="cls-1" d="M206.68,214.27l.9,30.92,12.87-12.9Z" transform="translate(-59.69 -38.91)"/>
        <path id="R-eye" class="cls-5" d="M177,166c-5.81-16.55-1.55-32.38,8.54-40.38a29.51,29.51,0,0,1,18-6,28.9,28.9,0,0,1,14.6,4.27c11.14,7,17.41,22.91,13.8,42.07Z" transform="translate(-59.69 -38.91)"/>
        <path id="L-eye" class="cls-5" d="M83.79,166.15c-5.71-19.3-.93-35.75,9.39-43a25.32,25.32,0,0,1,12.88-4.32A27.54,27.54,0,0,1,120.67,124c10.14,7.52,14.84,23.34,9.5,41.22Z" transform="translate(-59.69 -38.91)"/>
        <path id="L-Pupil" class="cls-6" d="M118.52,125.73a8.6,8.6,0,1,1-8.14,8.6A8.39,8.39,0,0,1,118.52,125.73Z" transform="translate(-59.69 -38.91)"/>
        <path id="R-Pupil" class="cls-6" d="M214.82,123.31a8.6,8.6,0,1,1-8.15,8.6A8.38,8.38,0,0,1,214.82,123.31Z" transform="translate(-59.69 -38.91)"/>
        <path id="R-Horn" class="cls-1" d="M248.56,49.11c1.12,12.64-1.87,25.19-9.41,35.23a46.87,46.87,0,0,1-12,11.18,43.46,43.46,0,0,0,28.38,28.31,64.38,64.38,0,0,0,7.67-46.39A62.9,62.9,0,0,0,248.56,49.11Z" transform="translate(-59.69 -38.91)"/>
    </g>
    <script type="text/ecmascript"><![CDATA[(function(){var actors={};actors.actor_3={node:document.getElementById("Layer_1").getElementById("group"),type:"square",cx:127.5,cy:130,dx:0,dy:0,opacity:1};var tricks={};tricks.trick_1=(function(t,a){a=(function(n){return n})(a)%1,a=a*1%1,a=0>a?1+a:a;var M=a*1*360*Math.PI/180,i=t._tMatrix,_=Math.cos(M),c=Math.sin(M),x=-Math.sin(M),s=Math.cos(M),h=-t.cx*Math.cos(M)+t.cy*Math.sin(M)+t.cx,n=-t.cx*Math.sin(M)-t.cy*Math.cos(M)+t.cy,r=i[0]*_+i[2]*c,o=i[1]*_+i[3]*c,y=i[0]*x+i[2]*s,f=i[1]*x+i[3]*s,d=i[0]*h+i[2]*n+i[4],e=i[1]*h+i[3]*n+i[5];t._tMatrix[0]=r,t._tMatrix[1]=o,t._tMatrix[2]=y,t._tMatrix[3]=f,t._tMatrix[4]=d,t._tMatrix[5]=e});var scenarios={};scenarios.scenario_1={actors: ["actor_3"],tricks: [{trick: "trick_1",start:0.00,end:1.00}],startAfter:0,duration:6000,actorDelay:0,repeat:0,repeatDelay:0};var _reqAnimFrame=window.requestAnimationFrame||window.mozRequestAnimationFrame||window.webkitRequestAnimationFrame||window.oRequestAnimationFrame,fnTick=function(t){var r,a,i,e,n,o,s,c,m,f,d,k,w;for(c in actors)actors[c]._tMatrix=[1,0,0,1,0,0];for(s in scenarios)for(o=scenarios[s],m=t-o.startAfter,r=0,a=o.actors.length;a>r;r++){if(i=actors[o.actors[r]],i&&i.node&&i._tMatrix)for(f=0,m>=0&&(d=o.duration+o.repeatDelay,o.repeat>0&&m>d*o.repeat&&(f=1),f+=m%d/o.duration),e=0,n=o.tricks.length;n>e;e++)k=o.tricks[e],w=(f-k.start)*(1/(k.end-k.start)),tricks[k.trick]&&tricks[k.trick](i,Math.max(0,Math.min(1,w)));m-=o.actorDelay}for(c in actors)i=actors[c],i&&i.node&&i._tMatrix&&i.node.setAttribute("transform","matrix("+i._tMatrix.join()+")");_reqAnimFrame(fnTick)};_reqAnimFrame(fnTick);})()]]></script>

</svg>